<svg xmlns="http://www.w3.org/2000/svg" version="1.1" xmlns:xlink="http://www.w3.org/1999/xlink" xmlns:svgjs="http://svgjs.dev/svgjs" width="1000" height="1000" viewBox="0 0 1000 1000"><rect width="1000" height="1000" fill="#000000"></rect><g transform="matrix(0.7,0,0,0.7,150.0000000000001,106.25)"><svg viewBox="0 0 320 360" data-background-color="#051726" preserveAspectRatio="xMidYMid meet" height="1125" width="1000" xmlns="http://www.w3.org/2000/svg" xmlns:xlink="http://www.w3.org/1999/xlink"><g id="tight-bounds" transform="matrix(1,0,0,1,0,0)"><svg viewBox="0 0 320 360" height="360" width="320"><g><svg></svg></g><g><svg viewBox="0 0 320 360" height="360" width="320"><g><path xmlns="http://www.w3.org/2000/svg" d="M20.961 227.22l3.726 4.658-1.863-6.056c-0.466-2.795-3.726 0.466-1.863 1.398M25.153 224.425c1.397 2.329 2.795 4.658 2.795 6.987 0 3.261 2.795 4.658 5.123 5.589-3.261-3.726-5.124-13.974-7.918-12.576M204.017 26.929c7.918 0 15.371-0.932 23.756 0.931 20.495 5.124 37.729 15.371 49.374 29.811l32.606 52.169c1.397 13.042 4.192 27.482 3.726 43.319 3.261 0 2.795-4.658 6.521-5.59-3.726 9.316-5.59 20.961-6.521 34.469-2.329-7.453 0-18.632 0.466-24.687-3.261 5.124-5.124 1.397-5.124-0.932 0.466-3.726-1.397-3.261-2.795-4.658-5.124-4.658-8.384-9.782-12.11-17.7 2.329-6.055 2.795-14.905-4.658-19.563-2.329-1.397-5.124-3.726-6.521-7.453-1.863-5.124-5.124-11.179-4.193-19.097 0.466-2.329-6.987 5.124-11.179 1.863-18.166-12.576-36.332-27.016-58.224-39.127-11.645 0-20.029-4.192-24.221-9.316-3.726-4.658-0.932-10.713 4.658-11.179 3.261 0 6.987-0.932 9.782 0.932 0.466-1.863 2.329-4.192 4.657-4.192M157.904 16.215l0.932 0.466c4.658 0.932 6.987 7.453 12.11 5.124 0 3.261 0.466 6.521-0.466 8.85-1.397 3.726-5.59 3.726-8.85 3.726-31.208-1.863-49.374 11.179-68.471 22.358-5.124 3.261-10.713 5.59-14.906 9.782-20.029 18.632-41.921 35.866-47.045 70.335l-4.192 38.195c-0.466 4.192-5.124 8.384-4.192 13.508l3.26 22.824c-3.261-3.261-5.124 0.932-4.192 2.795 0.466 1.397 2.329 6.055 5.124 1.863 3.726 6.987 7.453 20.495 12.576 26.55 15.837 18.632 36.332 35.4 53.101 52.169 4.192-0.932 7.453-0.932 8.384-3.727 1.397 2.795-1.397 5.59-3.726 6.056 7.453 4.658 15.837 8.85 27.016 9.781 14.44 0.932 27.948 3.261 40.524 6.522 6.521-1.863 13.042-2.795 20.029-3.261 2.329 0 3.726-3.726 6.521-4.658l0.466-4.658c2.795 4.192 2.329-1.397 0.466-4.192 3.261 2.795 4.192 5.124 5.589 6.987 0-1.397 3.726-6.521 3.727-0.466l0.931-6.055c1.397-0.932 1.863 5.124 3.261 0.931 1.397-4.192 4.192-0.932 6.987-2.329-0.932 1.863-0.466 5.59 2.794 3.261l3.727-3.261c2.329 5.59 6.055 3.261 7.918 2.329 20.495-13.042 40.99-28.413 60.553-43.784l-0.466 6.055 2.329-7.453c2.329 2.329 4.192 0.466 5.124-0.931 2.795-4.658 6.521-9.316 12.577-13.508-7.453 20.029-16.303 35.866-27.482 48.908l-4.658 5.59c0 3.261-0.932 7.453-4.658 7.918-1.863 0.466-5.59-0.932-8.384 1.863-1.397 1.863 3.261 5.59-0.466 2.795-3.261-2.329-6.521 0-10.248 0.932-2.795 0.932 1.863 3.726 2.795 5.589 0.932 1.863 1.863 3.726 1.398 6.056l-5.124-5.59c-6.055 3.261-9.782 9.316-14.906 13.974-2.329 1.863-1.397 5.124-1.397 7.918-3.261 0-6.987-0.932-8.85 0.932-1.397 1.863-0.932 4.658-0.932 7.453-4.658-0.466-5.124-7.453-9.315-6.056-4.192 0.932-8.85 1.397-12.577 3.727 2.795 5.59-4.658 2.329-3.726 3.26-6.987-4.192-13.042-7.453-20.495-4.658-15.837-5.124-35.4-2.795-49.84-0.931 0-2.329 0.466-4.658-0.466-5.124-0.932 2.329-3.726 1.397-3.26 1.397-8.85-6.055-17.7-9.782-27.016-14.905-8.384 0.932-16.303-3.261-18.632-5.59-6.521-6.055-13.974-2.795-20.029-4.192-13.042-3.261-17.7-16.769-19.098-26.084-0.932-4.658-4.658-6.521-6.055-6.056-6.055-19.563-15.371-37.263-22.824-55.429-1.863-4.658-1.397-9.316-1.397-14.44 2.329 0.932 4.658 0.466 4.192-2.794-2.329-15.371-7.918-27.016-13.974-38.195 3.261-15.837 3.726-34.469 11.179-48.443 6.521-12.576 18.632-19.098 27.016-29.811 2.795-3.726 2.795-8.85 5.59-12.11 9.316-9.316 18.632-19.098 28.879-27.482 4.658-3.726 10.247 0 17.234-1.397 2.329-8.384 11.645-15.837 20.495-13.508 3.726 0.932 11.179-8.85 13.508-9.782 3.726-1.397 1.863 3.726 1.863 6.987 8.85-6.987 20.961-10.713 32.14-14.906" fill="#ffffff" fill-rule="nonzero" stroke="none" stroke-width="1" stroke-linecap="butt" stroke-linejoin="miter" stroke-miterlimit="10" stroke-dasharray="" stroke-dashoffset="0" font-family="none" font-weight="none" font-size="none" text-anchor="none" style="mix-blend-mode: normal" data-fill-palette-color="tertiary"></path></g><g transform="matrix(1,0,0,1,64,147.123922571283)"><svg viewBox="0 0 192 65.75215485743401" height="65.75215485743401" width="192"><g><svg viewBox="0 0 308.11285720330204 105.51606406457275" height="65.75215485743401" width="192"><g transform="matrix(1,0,0,1,116.11285720330201,31.347091878215814)"><svg viewBox="0 0 192 42.82188030814112" height="42.82188030814112" width="192"><g id="textblocktransform"><svg viewBox="0 0 192 42.82188030814112" height="42.82188030814112" width="192" id="textblock"><g><svg viewBox="0 0 192 22.443605319323595" height="22.443605319323595" width="192"><g transform="matrix(1,0,0,1,0,0)"><svg width="192" viewBox="5.699999809265137 -35.29999923706055 304.5299987792969 35.599998474121094" height="22.443605319323595" data-palette-color="#ffffff"><path d="M5.7 0L5.7-35 19.95-35Q25.5-35 29.75-32.77 34-30.55 36.35-26.58 38.7-22.6 38.7-17.5L38.7-17.5Q38.7-12.4 36.35-8.43 34-4.45 29.75-2.23 25.5 0 19.95 0L19.95 0 5.7 0ZM9.4-3.2L19.75-3.2Q24.35-3.2 27.8-5.03 31.25-6.85 33.15-10.08 35.05-13.3 35.05-17.5L35.05-17.5Q35.05-21.7 33.15-24.93 31.25-28.15 27.8-29.98 24.35-31.8 19.75-31.8L19.75-31.8 9.4-31.8 9.4-3.2ZM70.6-6.8L72-4Q69.85-1.95 66.27-0.83 62.7 0.3 58.35 0.3L58.35 0.3Q53.75 0.3 50.52-0.95 47.3-2.2 45.67-4.4 44.05-6.6 44.05-9.45L44.05-9.45Q44.05-12.6 45.92-14.8 47.8-17 50.85-17.85L50.85-17.85Q48.35-18.8 46.95-20.88 45.55-22.95 45.55-25.75L45.55-25.75Q45.55-28.4 47.07-30.58 48.6-32.75 51.67-34.02 54.75-35.3 59.1-35.3L59.1-35.3Q62.3-35.3 65.32-34.58 68.35-33.85 70.5-32.5L70.5-32.5 69.35-29.55Q64.75-32.15 59.25-32.15L59.25-32.15Q54.4-32.15 51.82-30.3 49.25-28.45 49.25-25.5L49.25-25.5Q49.25-22.55 51.32-20.95 53.4-19.35 57.2-19.35L57.2-19.35 65.9-19.35 65.9-16.15 57.05-16.15Q52.75-16.15 50.25-14.53 47.75-12.9 47.75-9.7L47.75-9.7Q47.75-6.55 50.47-4.7 53.2-2.85 58.5-2.85L58.5-2.85Q62.2-2.85 65.4-3.9 68.6-4.95 70.6-6.8L70.6-6.8ZM104.05-35L107.8-35 92.3 0 88.65 0 73.15-35 77.15-35 90.55-4.6 104.05-35ZM136.14-6.8L137.54-4Q135.39-1.95 131.82-0.83 128.24 0.3 123.89 0.3L123.89 0.3Q119.29 0.3 116.07-0.95 112.84-2.2 111.22-4.4 109.59-6.6 109.59-9.45L109.59-9.45Q109.59-12.6 111.47-14.8 113.34-17 116.39-17.85L116.39-17.85Q113.89-18.8 112.49-20.88 111.09-22.95 111.09-25.75L111.09-25.75Q111.09-28.4 112.62-30.58 114.14-32.75 117.22-34.02 120.29-35.3 124.64-35.3L124.64-35.3Q127.84-35.3 130.87-34.58 133.89-33.85 136.04-32.5L136.04-32.5 134.89-29.55Q130.29-32.15 124.79-32.15L124.79-32.15Q119.94-32.15 117.37-30.3 114.79-28.45 114.79-25.5L114.79-25.5Q114.79-22.55 116.87-20.95 118.94-19.35 122.74-19.35L122.74-19.35 131.44-19.35 131.44-16.15 122.59-16.15Q118.29-16.15 115.79-14.53 113.29-12.9 113.29-9.7L113.29-9.7Q113.29-6.55 116.02-4.7 118.74-2.85 124.04-2.85L124.04-2.85Q127.74-2.85 130.94-3.9 134.14-4.95 136.14-6.8L136.14-6.8ZM144.24 0L144.24-35 147.94-35 147.94-3.2 167.54-3.2 167.54 0 144.24 0ZM188.29 0.3Q183.09 0.3 178.86-2.02 174.64-4.35 172.26-8.4 169.89-12.45 169.89-17.5L169.89-17.5Q169.89-22.55 172.26-26.6 174.64-30.65 178.86-32.98 183.09-35.3 188.29-35.3L188.29-35.3Q193.49-35.3 197.66-33 201.84-30.7 204.24-26.63 206.64-22.55 206.64-17.5L206.64-17.5Q206.64-12.45 204.24-8.38 201.84-4.3 197.66-2 193.49 0.3 188.29 0.3L188.29 0.3ZM188.29-3Q192.44-3 195.79-4.88 199.14-6.75 201.04-10.08 202.94-13.4 202.94-17.5L202.94-17.5Q202.94-21.6 201.04-24.93 199.14-28.25 195.79-30.13 192.44-32 188.29-32L188.29-32Q184.14-32 180.76-30.13 177.39-28.25 175.46-24.93 173.54-21.6 173.54-17.5L173.54-17.5Q173.54-13.4 175.46-10.08 177.39-6.75 180.76-4.88 184.14-3 188.29-3L188.29-3ZM228.04-35Q234.74-35 238.54-31.8 242.34-28.6 242.34-23L242.34-23Q242.34-17.4 238.54-14.23 234.74-11.05 228.04-11.05L228.04-11.05 218.64-11.05 218.64 0 214.94 0 214.94-35 228.04-35ZM227.94-14.3Q233.14-14.3 235.89-16.57 238.64-18.85 238.64-23L238.64-23Q238.64-27.25 235.89-29.53 233.14-31.8 227.94-31.8L227.94-31.8 218.64-31.8 218.64-14.3 227.94-14.3ZM274.18-6.8L275.58-4Q273.43-1.95 269.86-0.83 266.28 0.3 261.93 0.3L261.93 0.3Q257.33 0.3 254.11-0.95 250.88-2.2 249.26-4.4 247.63-6.6 247.63-9.45L247.63-9.45Q247.63-12.6 249.51-14.8 251.38-17 254.43-17.85L254.43-17.85Q251.93-18.8 250.53-20.88 249.13-22.95 249.13-25.75L249.13-25.75Q249.13-28.4 250.66-30.58 252.18-32.75 255.26-34.02 258.33-35.3 262.68-35.3L262.68-35.3Q265.88-35.3 268.91-34.58 271.93-33.85 274.08-32.5L274.08-32.5 272.93-29.55Q268.33-32.15 262.83-32.15L262.83-32.15Q257.98-32.15 255.41-30.3 252.83-28.45 252.83-25.5L252.83-25.5Q252.83-22.55 254.91-20.95 256.98-19.35 260.78-19.35L260.78-19.35 269.48-19.35 269.48-16.15 260.63-16.15Q256.33-16.15 253.83-14.53 251.33-12.9 251.33-9.7L251.33-9.7Q251.33-6.55 254.06-4.7 256.78-2.85 262.08-2.85L262.08-2.85Q265.78-2.85 268.98-3.9 272.18-4.95 274.18-6.8L274.18-6.8ZM310.23 0L306.18 0 298.18-11.25Q296.83-11.1 295.38-11.1L295.38-11.1 285.98-11.1 285.98 0 282.28 0 282.28-35 295.38-35Q302.08-35 305.88-31.8 309.68-28.6 309.68-23L309.68-23Q309.68-18.9 307.61-16.07 305.53-13.25 301.68-12L301.68-12 310.23 0ZM295.28-14.25Q300.48-14.25 303.23-16.55 305.98-18.85 305.98-23L305.98-23Q305.98-27.25 303.23-29.53 300.48-31.8 295.28-31.8L295.28-31.8 285.98-31.8 285.98-14.25 295.28-14.25Z" opacity="1" transform="matrix(1,0,0,1,0,0)" fill="#ffffff" class="wordmark-text-0" data-fill-palette-color="primary" id="text-0"></path></svg></g></svg></g><g transform="matrix(1,0,0,1,0,27.742001888688232)"><svg viewBox="0 0 145.92 15.07987841945289" height="15.07987841945289" width="145.92"><g transform="matrix(1,0,0,1,0,0)"><svg width="145.92" viewBox="2.8499999046325684 -36.54999923706055 460.54998779296875 47.599998474121094" height="15.07987841945289" data-palette-color="#81ffd9"><path d="M16.25 0.65Q9.85 0.65 6.35-4 2.85-8.65 2.85-17.35L2.85-17.35Q2.85-26 6.45-30.68 10.05-35.35 16.55-35.35L16.55-35.35Q19.2-35.35 21.55-34.68 23.9-34 25.33-32.8 26.75-31.6 26.75-30.1L26.75-30.1Q26.75-29 25.75-28.25 24.75-27.5 23.1-27.55L23.1-27.55Q22.7-30.4 21.03-31.9 19.35-33.4 16.6-33.4L16.6-33.4Q12.3-33.4 10.1-29.38 7.9-25.35 7.9-17.35L7.9-17.35Q7.9-9.4 10.08-5.35 12.25-1.3 16.5-1.3L16.5-1.3Q19.25-1.3 21.28-3.08 23.3-4.85 23.9-8.1L23.9-8.1 24.5-8.15Q25.85-8.15 26.78-7.55 27.7-6.95 27.7-5.8L27.7-5.8Q27.7-4.05 26.08-2.55 24.45-1.05 21.8-0.2 19.15 0.65 16.25 0.65L16.25 0.65ZM43.75 0.65Q38.25 0.65 35.17-2.88 32.1-6.4 32.1-12.7L32.1-12.7Q32.1-19.05 35.17-22.6 38.25-26.15 43.75-26.15L43.75-26.15Q49.25-26.15 52.3-22.6 55.35-19.05 55.35-12.7L55.35-12.7Q55.35-6.4 52.3-2.88 49.25 0.65 43.75 0.65L43.75 0.65ZM43.75-1.25Q47.05-1.25 48.77-4.2 50.5-7.15 50.5-12.7L50.5-12.7Q50.5-18.35 48.77-21.3 47.05-24.25 43.75-24.25L43.75-24.25Q40.4-24.25 38.67-21.3 36.95-18.35 36.95-12.7L36.95-12.7Q36.95-7.15 38.67-4.2 40.4-1.25 43.75-1.25L43.75-1.25ZM84.25-3.8Q84.8-3 84.8-2.1L84.8-2.1Q84.8-1 83.84-0.3 82.9 0.4 81.45 0.4L81.45 0.4Q77.2 0.4 77.05-6.15L77.05-6.15Q75.9-2.9 73.67-1.13 71.45 0.65 68.25 0.65L68.25 0.65Q63.55 0.65 61.57-2.88 59.6-6.4 59.6-11.6L59.6-11.6Q59.6-18.5 62.35-22.33 65.09-26.15 70.15-26.15L70.15-26.15Q72.65-26.15 74.37-25.15 76.09-24.15 76.84-22.35L76.84-22.35 76.84-28.15Q76.84-32.8 76.09-35.5L76.09-35.5Q77.15-36.55 78.7-36.55L78.7-36.55Q79.84-36.55 80.59-35.88 81.34-35.2 81.34-34.05L81.34-34.05 81.3-5.65Q81.3-3.05 82.9-3.05L82.9-3.05Q83.84-3.05 84.25-3.8L84.25-3.8ZM69.5-2.05Q71.75-2.05 73.42-3.85 75.09-5.65 75.95-8.7 76.8-11.75 76.8-15.35L76.8-15.35Q76.8-23.6 71-23.6L71-23.6Q67.8-23.6 66.12-20.58 64.45-17.55 64.45-11.75L64.45-11.75Q64.45-7.25 65.5-4.65 66.55-2.05 69.5-2.05L69.5-2.05ZM108.64-6.6Q109.39-6.3 109.39-5.45L109.39-5.45Q109.39-4.9 109.04-4.05L109.04-4.05Q108.14-1.75 105.74-0.55 103.34 0.65 100.04 0.65L100.04 0.65Q94.49 0.65 91.32-2.8 88.14-6.25 88.14-12.65L88.14-12.65Q88.14-18.95 91.29-22.55 94.44-26.15 100.24-26.15L100.24-26.15Q104.44-26.15 107.02-24.25 109.59-22.35 109.59-18.85L109.59-18.85Q109.59-15.15 106.59-13.2 103.59-11.25 98.34-11.25L98.34-11.25Q95.69-11.25 93.04-11.55L93.04-11.55Q93.64-2.35 101.19-2.35L101.19-2.35Q103.89-2.35 105.87-3.48 107.84-4.6 108.64-6.6L108.64-6.6ZM100.04-24.25Q96.79-24.25 94.92-21.45 93.04-18.65 92.99-13.4L92.99-13.4Q94.04-13.3 96.34-13.2L96.34-13.2Q100.14-13.2 102.44-14.58 104.74-15.95 104.74-19.5L104.74-19.5Q104.74-22.1 103.39-23.18 102.04-24.25 100.04-24.25L100.04-24.25ZM118.69 0.65Q117.44 0.65 116.59-0.2 115.74-1.05 115.74-2.25L115.74-2.25Q115.74-3.5 116.59-4.35 117.44-5.2 118.69-5.2L118.69-5.2Q119.89-5.2 120.74-4.35 121.59-3.5 121.59-2.25L121.59-2.25Q121.59-1.05 120.74-0.2 119.89 0.65 118.69 0.65L118.69 0.65ZM152.74 0.65Q146.34 0.65 142.84-4 139.34-8.65 139.34-17.35L139.34-17.35Q139.34-26 142.94-30.68 146.54-35.35 153.04-35.35L153.04-35.35Q155.69-35.35 158.04-34.68 160.39-34 161.81-32.8 163.24-31.6 163.24-30.1L163.24-30.1Q163.24-29 162.24-28.25 161.24-27.5 159.59-27.55L159.59-27.55Q159.19-30.4 157.51-31.9 155.84-33.4 153.09-33.4L153.09-33.4Q148.79-33.4 146.59-29.38 144.39-25.35 144.39-17.35L144.39-17.35Q144.39-9.4 146.56-5.35 148.74-1.3 152.99-1.3L152.99-1.3Q155.74-1.3 157.76-3.08 159.79-4.85 160.39-8.1L160.39-8.1 160.99-8.15Q162.34-8.15 163.26-7.55 164.19-6.95 164.19-5.8L164.19-5.8Q164.19-4.05 162.56-2.55 160.94-1.05 158.29-0.2 155.64 0.65 152.74 0.65L152.74 0.65ZM181.63-26.15Q184.23-26.15 185.86-24.73 187.48-23.3 187.48-20.85L187.48-20.85Q187.48-19.1 186.48-18 185.48-16.9 184.08-16.9L184.08-16.9Q182.83-16.9 182.28-17.55L182.28-17.55Q182.83-18.4 183.03-19.1 183.23-19.8 183.23-20.75L183.23-20.75Q183.23-23.75 180.48-23.75L180.48-23.75Q178.33-23.75 176.91-20.85 175.48-17.95 175.48-12L175.48-12Q175.48-5.85 175.58-3.93 175.68-2 176.23-0.55L176.23-0.55Q175.83-0.15 175.16 0.15 174.48 0.45 173.58 0.5L173.58 0.5Q172.48 0.5 171.73-0.23 170.98-0.95 170.98-2.2L170.98-2.2 170.98-20.05Q170.98-21.4 170.66-22 170.33-22.6 169.58-22.6L169.58-22.6Q168.63-22.6 168.28-21.9L168.28-21.9Q167.68-22.75 167.68-23.55L167.68-23.55Q167.68-24.7 168.53-25.4 169.38-26.1 170.88-26.1L170.88-26.1Q172.88-26.1 173.96-24.68 175.03-23.25 174.98-20.5L174.98-20.5Q175.83-23.25 177.53-24.7 179.23-26.15 181.63-26.15L181.63-26.15ZM211.43-6.6Q212.18-6.3 212.18-5.45L212.18-5.45Q212.18-4.9 211.83-4.05L211.83-4.05Q210.93-1.75 208.53-0.55 206.13 0.65 202.83 0.65L202.83 0.65Q197.28 0.65 194.11-2.8 190.93-6.25 190.93-12.65L190.93-12.65Q190.93-18.95 194.08-22.55 197.23-26.15 203.03-26.15L203.03-26.15Q207.23-26.15 209.81-24.25 212.38-22.35 212.38-18.85L212.38-18.85Q212.38-15.15 209.38-13.2 206.38-11.25 201.13-11.25L201.13-11.25Q198.48-11.25 195.83-11.55L195.83-11.55Q196.43-2.35 203.98-2.35L203.98-2.35Q206.68-2.35 208.66-3.48 210.63-4.6 211.43-6.6L211.43-6.6ZM202.83-24.25Q199.58-24.25 197.71-21.45 195.83-18.65 195.78-13.4L195.78-13.4Q196.83-13.3 199.13-13.2L199.13-13.2Q202.93-13.2 205.23-14.58 207.53-15.95 207.53-19.5L207.53-19.5Q207.53-22.1 206.18-23.18 204.83-24.25 202.83-24.25L202.83-24.25ZM241.18-3.95Q241.73-3.15 241.73-2.25L241.73-2.25Q241.73-1.1 240.65-0.3 239.58 0.5 238.03 0.5L238.03 0.5Q235.73 0.5 234.58-1.1 233.43-2.7 233.43-6.1L233.43-6.1 233.43-6.9Q231.88-3.5 229.13-1.48 226.38 0.55 222.98 0.55L222.98 0.55Q220.08 0.55 218.38-1.03 216.68-2.6 216.68-5.25L216.68-5.25Q216.68-8.25 218.98-10.33 221.28-12.4 225.03-13.45L225.03-13.45Q229.03-14.5 233.18-14.35L233.18-14.35 233.18-15.6Q233.18-20.05 231.8-22.15 230.43-24.25 227.23-24.25L227.23-24.25Q225.18-24.25 223.78-23.3 222.38-22.35 222.38-20.25L222.38-20.25Q222.38-19.15 222.9-18.13 223.43-17.1 224.48-16.7L224.48-16.7Q223.58-15.65 221.83-15.65L221.83-15.65Q220.03-15.65 218.93-16.98 217.83-18.3 217.83-20.1L217.83-20.1Q217.83-23 220.45-24.58 223.08-26.15 227.63-26.15L227.63-26.15Q232.88-26.15 235.35-23.55 237.83-20.95 237.83-15.35L237.83-15.35 237.83-5.65Q237.83-3 239.58-3L239.58-3Q239.98-3 240.43-3.25 240.88-3.5 241.18-3.95L241.18-3.95ZM224.93-2.55Q226.78-2.55 228.73-3.98 230.68-5.4 231.98-7.73 233.28-10.05 233.33-12.65L233.33-12.65Q231.48-12.75 229.43-12.48 227.38-12.2 225.98-11.6L225.98-11.6Q223.88-10.8 222.75-9.45 221.63-8.1 221.63-6.25L221.63-6.25Q221.63-4.65 222.43-3.6 223.23-2.55 224.93-2.55L224.93-2.55ZM252.98-25.45Q253.83-25.45 255.28-25.5 256.73-25.55 257.58-25.6L257.58-25.6 257.53-24.4Q257.48-23.8 257.13-23.48 256.78-23.15 256.28-23.15L256.28-23.15 251.33-23.15 251.33-21.35 251.28-5.65Q251.28-2.95 253.68-2.95L253.68-2.95Q254.38-2.95 255.05-3.2 255.73-3.45 255.93-3.9L255.93-3.9Q256.53-3.1 256.53-2.2L256.53-2.2Q256.53-0.95 255.28-0.2 254.03 0.55 252.03 0.55L252.03 0.55Q249.58 0.55 248.18-1 246.78-2.55 246.78-5.3L246.78-5.3 246.78-23.15 246.03-23.15Q244.03-23.15 243.03-23L243.03-23 243.08-24.25Q243.13-24.85 243.48-25.15 243.83-25.45 244.38-25.45L244.38-25.45 246.78-25.45 246.78-29.65Q246.78-30.8 247.5-31.45 248.23-32.1 249.43-32.1L249.43-32.1Q250.83-32.1 251.98-31.1L251.98-31.1Q251.43-29.2 251.38-25.45L251.38-25.45 252.98-25.45ZM281.87-6.6Q282.62-6.3 282.62-5.45L282.62-5.45Q282.62-4.9 282.27-4.05L282.27-4.05Q281.37-1.75 278.97-0.55 276.57 0.65 273.27 0.65L273.27 0.65Q267.72 0.65 264.55-2.8 261.37-6.25 261.37-12.65L261.37-12.65Q261.37-18.95 264.52-22.55 267.67-26.15 273.47-26.15L273.47-26.15Q277.67-26.15 280.25-24.25 282.82-22.35 282.82-18.85L282.82-18.85Q282.82-15.15 279.82-13.2 276.82-11.25 271.57-11.25L271.57-11.25Q268.92-11.25 266.27-11.55L266.27-11.55Q266.87-2.35 274.42-2.35L274.42-2.35Q277.12-2.35 279.1-3.48 281.07-4.6 281.87-6.6L281.87-6.6ZM273.27-24.25Q270.02-24.25 268.15-21.45 266.27-18.65 266.22-13.4L266.22-13.4Q267.27-13.3 269.57-13.2L269.57-13.2Q273.37-13.2 275.67-14.58 277.97-15.95 277.97-19.5L277.97-19.5Q277.97-22.1 276.62-23.18 275.27-24.25 273.27-24.25L273.27-24.25ZM291.92 0.65Q290.67 0.65 289.82-0.2 288.97-1.05 288.97-2.25L288.97-2.25Q288.97-3.5 289.82-4.35 290.67-5.2 291.92-5.2L291.92-5.2Q293.12-5.2 293.97-4.35 294.82-3.5 294.82-2.25L294.82-2.25Q294.82-1.05 293.97-0.2 293.12 0.65 291.92 0.65L291.92 0.65ZM317.07 0.6Q315.87 0.6 315.14-0.08 314.42-0.75 314.42-1.9L314.42-1.9 314.42-28.6Q314.42-32.1 313.72-34.2L313.72-34.2Q314.12-34.6 314.79-34.9 315.47-35.2 316.32-35.2L316.32-35.2Q317.52-35.2 318.27-34.55 319.02-33.9 319.02-32.75L319.02-32.75 319.02-6Q319.02-2.3 319.72-0.45L319.72-0.45Q318.52 0.6 317.07 0.6L317.07 0.6ZM348.76-6Q348.86-2.15 349.51-0.45L349.51-0.45Q348.36 0.6 346.91 0.6L346.91 0.6Q345.76 0.6 345.01-0.08 344.26-0.75 344.26-1.9L344.26-1.9 344.26-15.2Q344.21-19.5 343.11-21.55 342.01-23.6 339.36-23.6L339.36-23.6Q337.66-23.6 336.14-22.38 334.61-21.15 333.64-18.55 332.66-15.95 332.66-12L332.66-12Q332.66-5.75 332.76-3.8 332.86-1.85 333.41-0.4L333.41-0.4Q333.01 0 332.34 0.3 331.66 0.6 330.81 0.6L330.81 0.6Q329.61 0.6 328.89-0.13 328.16-0.85 328.16-2.1L328.16-2.1 328.16-20.05Q328.11-21.45 327.79-22.03 327.46-22.6 326.76-22.6L326.76-22.6Q325.81-22.6 325.46-21.9L325.46-21.9Q324.86-22.75 324.86-23.55L324.86-23.55Q324.86-24.7 325.71-25.4 326.56-26.1 328.06-26.1L328.06-26.1Q330.06-26.1 331.14-24.73 332.21-23.35 332.21-20.7L332.21-20.7 332.21-20.1Q333.26-23 335.46-24.58 337.66-26.15 340.71-26.15L340.71-26.15Q348.76-26.15 348.76-15.8L348.76-15.8 348.76-6ZM363.71 0.65Q359.01 0.65 356.66-1 354.31-2.65 354.31-5.35L354.31-5.35Q354.31-6.65 354.99-7.5 355.66-8.35 357.11-8.35L357.11-8.35Q357.36-8.35 357.96-8.25L357.96-8.25Q357.81-7.6 357.81-7L357.81-7Q357.81-6.4 357.86-6.05L357.86-6.05Q358.01-3.9 359.66-2.63 361.31-1.35 364.16-1.35L364.16-1.35Q366.81-1.35 368.44-2.33 370.06-3.3 370.06-5.1L370.06-5.1Q370.06-6.35 369.39-7.23 368.71-8.1 367.69-8.7 366.66-9.3 364.81-10.15L364.81-10.15 363.26-10.85Q360.51-12.15 359.01-13.08 357.51-14 356.41-15.6 355.31-17.2 355.31-19.55L355.31-19.55Q355.31-22.9 357.89-24.55 360.46-26.2 364.46-26.2L364.46-26.2Q368.61-26.2 370.96-24.9 373.31-23.6 373.31-21.2L373.31-21.2Q373.31-20.2 372.79-19.53 372.26-18.85 371.16-18.75L371.16-18.75Q370.91-18.7 370.46-18.7L370.46-18.7Q369.96-18.7 369.66-18.8L369.66-18.8Q369.71-19.05 369.71-19.7L369.71-19.7Q369.71-20.5 369.51-21.05L369.51-21.05Q369.31-22.6 367.94-23.43 366.56-24.25 364.31-24.25L364.31-24.25Q362.21-24.25 360.84-23.45 359.46-22.65 359.46-20.95L359.46-20.95Q359.46-19.5 360.29-18.45 361.11-17.4 362.26-16.73 363.41-16.05 365.81-14.9L365.81-14.9 366.76-14.45Q369.26-13.25 370.74-12.35 372.21-11.45 373.26-10.05 374.31-8.65 374.31-6.65L374.31-6.65Q374.31-3.65 371.79-1.5 369.26 0.65 363.71 0.65L363.71 0.65ZM393.56-26.15Q398.36-26.15 400.31-22.58 402.26-19 402.26-13.85L402.26-13.85Q402.26-6.95 399.46-3.15 396.66 0.65 391.66 0.65L391.66 0.65Q389.21 0.65 387.46-0.33 385.71-1.3 384.96-3.1L384.96-3.1 384.96 2.2Q384.96 7.35 385.71 10.05L385.71 10.05Q385.31 10.45 384.63 10.75 383.96 11.05 383.11 11.05L383.11 11.05Q381.96 11.05 381.21 10.4 380.46 9.75 380.46 8.6L380.46 8.6 380.51-19.9Q380.51-21.3 380.18-21.88 379.86-22.45 379.11-22.45L379.11-22.45Q378.16-22.45 377.81-21.75L377.81-21.75Q377.21-22.65 377.21-23.45L377.21-23.45Q377.21-24.55 378.08-25.25 378.96-25.95 380.41-25.95L380.41-25.95Q384.66-25.95 384.76-19.3L384.76-19.3Q385.96-22.55 388.16-24.35 390.36-26.15 393.56-26.15L393.56-26.15ZM390.61-1.9Q393.96-1.9 395.68-4.93 397.41-7.95 397.41-13.85L397.41-13.85Q397.41-18.2 396.36-20.83 395.31-23.45 392.31-23.45L392.31-23.45Q390.06-23.45 388.41-21.65 386.76-19.85 385.88-16.9 385.01-13.95 385.01-10.5L385.01-10.5Q385.01-6.45 386.26-4.17 387.51-1.9 390.61-1.9L390.61-1.9ZM410.81-29.75Q409.56-29.75 408.71-30.6 407.86-31.45 407.86-32.65L407.86-32.65Q407.86-33.9 408.71-34.75 409.56-35.6 410.81-35.6L410.81-35.6Q412.01-35.6 412.86-34.75 413.71-33.9 413.71-32.65L413.71-32.65Q413.71-31.45 412.86-30.6 412.01-29.75 410.81-29.75L410.81-29.75ZM413.26-6Q413.26-2.3 413.96-0.45L413.96-0.45Q412.91 0.6 411.36 0.6L411.36 0.6Q410.26 0.6 409.53-0.08 408.81-0.75 408.81-1.9L408.81-1.9 408.76-19.55Q408.76-23.3 408.06-25.15L408.06-25.15Q409.36-26.15 410.66-26.15L410.66-26.15Q411.81-26.15 412.51-25.5 413.21-24.85 413.21-23.7L413.21-23.7 413.26-6ZM432.65-26.15Q435.25-26.15 436.88-24.73 438.5-23.3 438.5-20.85L438.5-20.85Q438.5-19.1 437.5-18 436.5-16.9 435.1-16.9L435.1-16.9Q433.85-16.9 433.3-17.55L433.3-17.55Q433.85-18.4 434.05-19.1 434.25-19.8 434.25-20.75L434.25-20.75Q434.25-23.75 431.5-23.75L431.5-23.75Q429.35-23.75 427.93-20.85 426.5-17.95 426.5-12L426.5-12Q426.5-5.85 426.6-3.93 426.7-2 427.25-0.55L427.25-0.55Q426.85-0.15 426.18 0.15 425.5 0.45 424.6 0.5L424.6 0.5Q423.5 0.5 422.75-0.23 422-0.95 422-2.2L422-2.2 422-20.05Q422-21.4 421.68-22 421.35-22.6 420.6-22.6L420.6-22.6Q419.65-22.6 419.3-21.9L419.3-21.9Q418.7-22.75 418.7-23.55L418.7-23.55Q418.7-24.7 419.55-25.4 420.4-26.1 421.9-26.1L421.9-26.1Q423.9-26.1 424.98-24.68 426.05-23.25 426-20.5L426-20.5Q426.85-23.25 428.55-24.7 430.25-26.15 432.65-26.15L432.65-26.15ZM462.45-6.6Q463.2-6.3 463.2-5.45L463.2-5.45Q463.2-4.9 462.85-4.05L462.85-4.05Q461.95-1.75 459.55-0.55 457.15 0.65 453.85 0.65L453.85 0.65Q448.3 0.65 445.13-2.8 441.95-6.25 441.95-12.65L441.95-12.65Q441.95-18.95 445.1-22.55 448.25-26.15 454.05-26.15L454.05-26.15Q458.25-26.15 460.83-24.25 463.4-22.35 463.4-18.85L463.4-18.85Q463.4-15.15 460.4-13.2 457.4-11.25 452.15-11.25L452.15-11.25Q449.5-11.25 446.85-11.55L446.85-11.55Q447.45-2.35 455-2.35L455-2.35Q457.7-2.35 459.68-3.48 461.65-4.6 462.45-6.6L462.45-6.6ZM453.85-24.25Q450.6-24.25 448.73-21.45 446.85-18.65 446.8-13.4L446.8-13.4Q447.85-13.3 450.15-13.2L450.15-13.2Q453.95-13.2 456.25-14.58 458.55-15.95 458.55-19.5L458.55-19.5Q458.55-22.1 457.2-23.18 455.85-24.25 453.85-24.25L453.85-24.25Z" opacity="1" transform="matrix(1,0,0,1,0,0)" fill="#ffffff" class="slogan-text-1" data-fill-palette-color="secondary" id="text-1"></path></svg></g></svg></g></svg></g></svg></g><g><svg viewBox="0 0 105.51606406457275 105.51606406457275" height="105.51606406457275" width="105.51606406457275"><g><svg></svg></g><g id="icon-0"><svg viewBox="0 0 105.51606406457275 105.51606406457275" height="105.51606406457275" width="105.51606406457275"><g><path d="M0 52.758c0-29.137 23.621-52.758 52.758-52.758 29.137 0 52.758 23.621 52.758 52.758 0 29.137-23.621 52.758-52.758 52.758-29.137 0-52.758-23.621-52.758-52.758zM52.758 103.492c28.02 0 50.734-22.714 50.734-50.734 0-28.02-22.714-50.734-50.734-50.734-28.02 0-50.734 22.714-50.734 50.734 0 28.02 22.714 50.734 50.734 50.734z" data-fill-palette-color="accent" fill="#ffffff" stroke="transparent"></path></g><g transform="matrix(1,0,0,1,31.785429560110472,21.078768210483414)"><svg viewBox="0 0 41.9452049443518 63.35852764360592" height="63.35852764360592" width="41.9452049443518"><g><svg xmlns="http://www.w3.org/2000/svg" xmlns:xlink="http://www.w3.org/1999/xlink" version="1.1" x="0" y="0" viewBox="24.761856079101562 5 59.5826416015625 90" enable-background="new 0 0 100 100" xml:space="preserve" height="63.35852764360592" width="41.9452049443518" class="icon-s-0" data-fill-palette-color="accent" id="s-0"><g fill="#81ffd9" data-fill-palette-color="accent"><path d="M73.76 35.603C86.875 48 91.5 66.25 65.633 82.379c3.64-4.928 5.654-9.794 6.096-14.669 0.951-10.516-5.606-19.072-12.835-26.752C48.298 29.7 47.51 18.84 56.413 6.782 54.578 22.641 64.6 26.944 73.76 35.603zM45.288 93.716c6.184-13.053 7.276-20.302-8.197-34.939-4.204-3.977-7.451-8.029-9.71-12.086-2.881 6.435-5.164 20.081 3.244 27.935C36.312 79.938 44.125 83.125 45.288 93.716zM56.709 43.014C48.183 33.954 41.999 21.253 54 5 21.497 17.692 19.625 38.125 39.151 56.597 55.603 72.158 54.75 80.75 48 95 79.875 71.5 68.709 55.764 56.709 43.014z" fill="#ffffff" data-fill-palette-color="accent"></path></g><g display="none" fill="#81ffd9" data-fill-palette-color="accent"><path display="inline" d="M54 5C16.75 17.5 14.875 56.5 26.75 70.762c10.558 12.68 15.407 7.949 19.675 20.824" fill="#ffffff" data-fill-palette-color="accent"></path><line display="inline" x1="56.988" y1="5.261" x2="45.528" y2="136.262" fill="#ffffff" data-fill-palette-color="accent"></line><line display="inline" x1="54.131" y1="3.502" x2="42.67" y2="134.502" fill="#ffffff" data-fill-palette-color="accent"></line><path display="inline" d="M42.875 76" fill="#ffffff" data-fill-palette-color="accent"></path></g></svg></g></svg></g></svg></g></svg></g></svg></g></svg></g></svg></g><defs></defs></svg><rect width="320" height="360" fill="none" stroke="none" visibility="hidden"></rect></g></svg></g></svg>